<svg width="97" height="96" viewBox="0 0 97 96" fill="none" xmlns="http://www.w3.org/2000/svg">
<g clip-path="url(#clip0_1456_17142)">
<path d="M96.3555 73.4204H0.355469V73.4684H96.3555V73.4204Z" fill="#EBEBEB"/>
<path d="M86.7364 76.5107H80.377V76.5587H86.7364V76.5107Z" fill="#EBEBEB"/>
<path d="M77.9595 76.5107H64.3647V76.5587H77.9595V76.5107Z" fill="#EBEBEB"/>
<path d="M56.8675 74.728H53.1826V74.776H56.8675V74.728Z" fill="#EBEBEB"/>
<path d="M17.0114 75.0505H10.4277V75.0985H17.0114V75.0505Z" fill="#EBEBEB"/>
<path d="M30.6915 75.0505H18.7207V75.0985H30.6915V75.0505Z" fill="#EBEBEB"/>
<path d="M43.5839 75.8613H36.5156V75.9093H43.5839V75.8613Z" fill="#EBEBEB"/>
<path d="M45.8624 64.8576H8.78734C8.18312 64.8576 7.69141 64.3659 7.69141 63.7617V11.6467C7.69141 11.0425 8.18312 10.5508 8.78734 10.5508H45.8624C46.4664 10.5508 46.9581 11.0425 46.9581 11.6467V63.7617C46.9581 64.3659 46.4664 64.8576 45.8624 64.8576ZM8.78734 10.599C8.20942 10.599 7.73941 11.069 7.73941 11.6469V63.7619C7.73941 64.3398 8.20942 64.8098 8.78734 64.8098H45.8624C46.4401 64.8098 46.9101 64.3398 46.9101 63.7619V11.6467C46.9101 11.069 46.4401 10.5988 45.8624 10.5988L8.78734 10.599Z" fill="#EBEBEB"/>
<path d="M87.3913 64.8576H50.3164C49.7122 64.8576 49.2207 64.3659 49.2207 63.7617V11.6467C49.2207 11.0425 49.7124 10.5508 50.3164 10.5508H87.3913C87.9957 10.5508 88.4872 11.0425 88.4872 11.6467V63.7617C88.4874 64.3659 87.9957 64.8576 87.3913 64.8576ZM50.3164 10.599C49.7387 10.599 49.2687 11.069 49.2687 11.6469V63.7619C49.2687 64.3398 49.7387 64.8098 50.3164 64.8098H87.3913C87.9692 64.8098 88.4392 64.3398 88.4392 63.7619V11.6467C88.4392 11.069 87.9692 10.5988 87.3913 10.5988L50.3164 10.599Z" fill="#EBEBEB"/>
<path d="M14.9165 37.0989H40.9707V14.5252L14.9165 14.5252L14.9165 37.0989Z" fill="#E6E6E6"/>
<path d="M14.3374 37.0989H40.3916V14.5252L14.3374 14.5252L14.3374 37.0989Z" fill="#F5F5F5"/>
<path d="M39.3516 36.292L39.3516 15.3318L15.3759 15.3318L15.3759 36.292H39.3516Z" fill="#FAFAFA"/>
<path d="M29.7362 36.292L34.08 15.3318H24.9924L20.6484 36.292H29.7362Z" fill="white"/>
<path d="M15.8135 36.292L15.8135 15.3318H15.3757L15.3757 36.292H15.8135Z" fill="#E6E6E6"/>
<path d="M14.7665 32.5337H39.9609V31.4506L14.7665 31.4506V32.5337Z" fill="#F5F5F5"/>
<path d="M39.7636 72.2773H43.9238V54.2347H39.7636V72.2773Z" fill="#F0F0F0"/>
<path d="M12.591 73.4207H43.125V72.2775H12.591V73.4207Z" fill="#F0F0F0"/>
<path d="M39.7633 54.2349H11.792V72.2775H39.7633V54.2349Z" fill="#F5F5F5"/>
<path d="M38.1278 56.4553H13.4277V62.3726H38.1278V56.4553Z" fill="#F0F0F0"/>
<path d="M38.1278 64.1389H13.4277V70.0562H38.1278V64.1389Z" fill="#F0F0F0"/>
<path d="M19.1205 59.8197H32.4346C32.6577 59.8197 32.8403 59.6371 32.8403 59.414C32.8403 59.1909 32.6577 59.0083 32.4346 59.0083H19.1205C18.8974 59.0083 18.7148 59.1909 18.7148 59.414C18.7148 59.6371 18.8974 59.8197 19.1205 59.8197Z" fill="#F5F5F5"/>
<path d="M19.1205 67.5033H32.4346C32.6577 67.5033 32.8403 67.3207 32.8403 67.0976C32.8403 66.8745 32.6577 66.6919 32.4346 66.6919H19.1205C18.8974 66.6919 18.7148 66.8745 18.7148 67.0976C18.7148 67.3207 18.8974 67.5033 19.1205 67.5033Z" fill="#F5F5F5"/>
<path d="M83.2277 26.3236C85.597 25.6706 86.4074 21.3721 80.4199 19.6174C81.7405 23.9403 79.0968 27.4622 83.2277 26.3236Z" fill="#EBEBEB"/>
<path d="M83.7518 28.1896C85.6188 26.1709 83.8528 21.6065 77.1255 23.4712C80.9317 26.8015 80.4966 31.7092 83.7518 28.1896Z" fill="#E0E0E0"/>
<path d="M81.908 28.7074C80.3446 27.1597 82.5838 21.7747 87.7448 24.2703C84.8203 27.0664 84.6338 31.4056 81.908 28.7074Z" fill="#FAFAFA"/>
<path d="M80.3501 31.7226H84.8984L85.2417 28.6453H80.0068L80.3501 31.7226Z" fill="#E6E6E6"/>
<path d="M79.9554 29.1954H85.2926C85.4802 29.1954 85.6322 29.0433 85.6322 28.8558C85.6322 28.6682 85.4802 28.5161 85.2926 28.5161H79.9554C79.7678 28.5161 79.6157 28.6682 79.6157 28.8558C79.6159 29.0433 79.768 29.1954 79.9554 29.1954Z" fill="#E6E6E6"/>
<path d="M42.0796 68.2082V62.996H46.4217V57.7838H50.7637V52.5717H55.106V47.3593H59.4481V42.1471H63.7902V36.9351H68.1322V31.7227H72.4745H96.3563V73.4204H42.0796H37.7373V68.2082H42.0796Z" fill="#FAFAFA"/>
<path d="M65.9612 68.2082V62.996H70.3033V57.7838H74.6454V52.5717H78.9877V47.3593H83.3297V42.1471H87.6718V36.9351H92.0141V31.7227H96.3562V36.9351V73.4204H65.9612H61.6191V68.2082H65.9612Z" fill="#E0E0E0"/>
<path d="M61.6191 68.2083H37.4814V69.7719H61.6191V68.2083Z" fill="#EBEBEB"/>
<path d="M65.9609 62.9961H41.8232V64.5597H65.9609V62.9961Z" fill="#EBEBEB"/>
<path d="M70.3037 57.7837H46.166V59.3473H70.3037V57.7837Z" fill="#EBEBEB"/>
<path d="M74.6455 52.5715H50.5078V54.1352H74.6455V52.5715Z" fill="#EBEBEB"/>
<path d="M78.9883 47.3594H54.8506V48.923H78.9883V47.3594Z" fill="#EBEBEB"/>
<path d="M83.33 42.1472H59.1924V43.7109H83.33V42.1472Z" fill="#EBEBEB"/>
<path d="M87.6718 36.9348H63.5342V38.4985H87.6718V36.9348Z" fill="#EBEBEB"/>
<path d="M92.0141 31.7227H67.8765V33.2863H92.0141V31.7227Z" fill="#EBEBEB"/>
<path d="M48.3556 82.0917C68.9153 82.0917 85.5823 81.1183 85.5823 79.9177C85.5823 78.717 68.9153 77.7437 48.3556 77.7437C27.7959 77.7437 11.1289 78.717 11.1289 79.9177C11.1289 81.1183 27.7959 82.0917 48.3556 82.0917Z" fill="#F5F5F5"/>
<path d="M64.6167 30.4562C64.5836 31.0317 64.5163 31.5606 64.4412 32.1082C64.3657 32.6514 64.2644 33.1903 64.1484 33.7279C63.9216 34.8033 63.6092 35.8701 63.179 36.9099L63.0056 37.2972L62.9622 37.3938L62.9405 37.442C62.9334 37.4577 62.9278 37.4713 62.9109 37.5036C62.8568 37.6117 62.7875 37.7256 62.6894 37.8365C62.5909 37.9462 62.4674 38.0527 62.3219 38.1268C62.1798 38.2009 62.0229 38.2497 61.8832 38.2647C61.598 38.2985 61.3749 38.2482 61.186 38.1923C60.8151 38.071 60.5476 37.9035 60.2953 37.7327C60.0473 37.5583 59.8253 37.3742 59.6128 37.1855C58.7785 36.4176 58.0835 35.5955 57.4434 34.7017L58.0806 34.1632C58.4546 34.518 58.845 34.8763 59.2349 35.2167C59.6233 35.5602 60.0254 35.8854 60.4299 36.1763C60.6313 36.3215 60.8354 36.457 61.0361 36.5688C61.2327 36.6807 61.4368 36.7723 61.5777 36.7999C61.6443 36.8137 61.69 36.8057 61.6691 36.8011C61.6501 36.7924 61.5646 36.8324 61.5468 36.8552C61.5355 36.8652 61.5353 36.8642 61.5383 36.8525L61.6 36.6922L61.7342 36.3433C62.0673 35.397 62.3186 34.4041 62.5123 33.3948C62.6131 32.891 62.6846 32.3797 62.7608 31.8699C62.8336 31.3644 62.8919 30.8364 62.9361 30.3508L64.6167 30.4562Z" fill="#FFC3BD"/>
<path d="M63.4539 28.3434C62.7383 28.5256 62.2378 31.4701 62.2378 31.4701L64.2096 32.8111C64.2096 32.8111 66.1003 29.8404 65.5498 29.0538C64.9765 28.2345 64.498 28.0775 63.4539 28.3434Z" fill="#407BFF"/>
<path d="M63.4539 28.3434C62.7383 28.5256 62.2378 31.4701 62.2378 31.4701L64.2096 32.8111C64.2096 32.8111 66.1003 29.8404 65.5498 29.0538C64.9765 28.2345 64.498 28.0775 63.4539 28.3434Z" fill="#407BFF"/>
<path opacity="0.4" d="M63.4539 28.3434C62.7383 28.5256 62.2378 31.4701 62.2378 31.4701L64.2096 32.8111C64.2096 32.8111 66.1003 29.8404 65.5498 29.0538C64.9765 28.2345 64.498 28.0775 63.4539 28.3434Z" fill="black"/>
<path opacity="0.3" d="M63.5184 29.0012L62.9688 31.9692L64.0772 32.7206L63.5184 29.0012Z" fill="black"/>
<path d="M58.1182 34.0388L57.1803 32.5574L56.6484 34.2408C56.6484 34.2408 57.4178 35.0476 58.1134 34.8552L58.1182 34.0388Z" fill="#FFC3BD"/>
<path d="M55.8046 32.0674L55.4355 33.501L56.6476 34.241L57.1797 32.5576L55.8046 32.0674Z" fill="#FFC3BD"/>
<path d="M67.3252 77.905H65.5891L65.4731 73.8845H67.2094L67.3252 77.905Z" fill="#FFC3BD"/>
<path d="M82.6454 69.8407L81.3222 70.9647L78.2939 68.2619L79.617 67.1379L82.6454 69.8407Z" fill="#FFC3BD"/>
<path d="M80.9596 70.8299L82.2429 69.3611C82.2896 69.3077 82.3647 69.2968 82.4234 69.3348L83.7317 70.1829C83.8674 70.2708 83.8909 70.4741 83.781 70.5957C83.3249 71.1 83.0791 71.3206 82.5148 71.9665C82.1677 72.364 81.7017 72.9805 81.2223 73.5294C80.7534 74.0662 80.1747 73.6333 80.325 73.3618C80.9999 72.1447 80.8373 71.7173 80.849 71.1189C80.8513 71.0108 80.8913 70.9082 80.9596 70.8299Z" fill="#263238"/>
<path d="M65.5299 77.7041H67.4805C67.5515 77.7041 67.6091 77.7534 67.6191 77.8228L67.8414 79.3661C67.8645 79.5262 67.7268 79.6777 67.563 79.6748C66.8829 79.6631 66.5552 79.6231 65.6975 79.6231C65.1697 79.6231 64.0784 79.6779 63.3496 79.6779C62.6369 79.6779 62.582 78.9573 62.8855 78.892C64.246 78.5994 64.7815 78.1958 65.2398 77.8109C65.3224 77.7415 65.4261 77.7041 65.5299 77.7041Z" fill="#263238"/>
<path opacity="0.2" d="M65.4736 73.8857L65.5332 75.958H67.27L67.2105 73.8857H65.4736Z" fill="black"/>
<path opacity="0.2" d="M79.6181 67.1382L78.2944 68.2625L79.856 69.6553L81.1798 68.5308L79.6181 67.1382Z" fill="black"/>
<path d="M63.454 28.3436C63.454 28.3436 62.6269 28.6349 64.2837 38.822C67.0817 38.822 69.9732 38.822 71.3349 38.822C71.2166 35.9522 71.2131 34.1827 72.5848 28.2933C72.5848 28.2933 71.1073 27.9719 69.5905 27.8987C68.404 27.8415 67.4319 27.8037 66.3888 27.8989C65.0135 28.0243 63.454 28.3436 63.454 28.3436Z" fill="#407BFF"/>
<path opacity="0.4" d="M63.454 28.3436C63.454 28.3436 62.6269 28.6349 64.2837 38.822C67.0817 38.822 69.9732 38.822 71.3349 38.822C71.2166 35.9522 71.2131 34.1827 72.5848 28.2933C72.5848 28.2933 71.1073 27.9719 69.5905 27.8987C68.404 27.8415 67.4319 27.8037 66.3888 27.8989C65.0135 28.0243 63.454 28.3436 63.454 28.3436Z" fill="black"/>
<path d="M69.5908 27.8978C68.4043 27.8421 67.4328 27.8037 66.3883 27.8997C66.2155 27.9151 66.0388 27.9343 65.8641 27.9554C65.747 28.157 65.6587 28.4277 65.7681 28.7042C65.9927 29.2629 66.803 29.3282 67.3943 29.3282C69.5774 29.3282 69.946 28.0533 69.9614 27.9995L69.9825 27.9227C69.852 27.9131 69.7214 27.9035 69.5908 27.8978Z" fill="white"/>
<path d="M69.2734 24.2935C69.0714 25.3237 68.8698 27.2113 69.5906 27.8986C69.5906 27.8986 69.3089 28.9437 67.3947 28.9437C65.2898 28.9437 66.3888 27.8988 66.3888 27.8988C67.5376 27.6245 67.508 26.7722 67.3079 25.9717L69.2734 24.2935Z" fill="#FFC3BD"/>
<path opacity="0.2" d="M68.4719 24.978L67.3086 25.9707C67.3566 26.1602 67.394 26.3522 67.4073 26.539C67.8462 26.4756 68.4491 25.9939 68.4955 25.5343C68.519 25.305 68.5094 25.0848 68.4719 24.978Z" fill="black"/>
<path d="M68.0768 18.6907C67.8981 18.0873 67.7441 17.1336 68.8227 16.7124C68.403 16.198 68.3003 15.2301 68.816 14.6551C69.3317 14.0802 70.1212 14.2926 70.1212 14.2926C70.1212 14.2926 70.3514 12.8891 72.0581 13.1348C73.7648 13.3804 73.0047 14.5103 73.0047 14.5103C73.0047 14.5103 75.3342 14.0489 75.4897 16.2433C75.6453 18.4377 74.308 18.167 74.308 18.167C74.308 18.167 75.3469 19.0381 74.7717 19.9961C74.1964 20.9544 72.8649 20.6242 72.8649 20.6242C72.8649 20.6242 72.239 22.317 70.7648 21.3538C69.2906 20.3907 68.0768 18.6907 68.0768 18.6907Z" fill="#263238"/>
<path d="M64.6174 19.9649C64.0401 20.7086 64.2951 21.5526 64.8041 21.8778C66.0427 22.6691 67.8338 19.3528 67.368 18.9554C66.9024 18.5578 65.1948 19.2213 64.6174 19.9649Z" fill="#263238"/>
<path d="M69.8194 18.1941C69.0048 17.8656 68.1801 18.2087 67.9221 18.7049C67.2941 19.9122 70.1453 22.0881 70.9711 20.5782C71.4614 19.6818 70.6593 18.5326 69.8194 18.1941Z" fill="#407BFF"/>
<path d="M69.4712 21.883C69.5301 23.605 69.5919 24.3327 68.8115 25.2943C67.6376 26.7406 65.5095 26.4365 64.9373 24.7668C64.4222 23.2639 64.4124 20.7003 66.0227 19.8584C67.6094 19.0287 69.4122 20.161 69.4712 21.883Z" fill="#FFC3BD"/>
<path d="M69.2155 22.7914C68.4535 22.5061 68.2545 21.6087 68.3801 21.2639C67.9992 21.2479 67.1557 21.1107 66.8401 20.6337C66.241 21.0104 64.9758 21.4006 64.8381 20.7635C64.7004 20.1265 66.6116 18.4797 68.0551 18.3535C69.771 18.2036 71.4655 19.8915 71.028 21.5048C70.5902 23.1182 69.2155 22.7914 69.2155 22.7914Z" fill="#263238"/>
<path d="M64.2839 38.822C64.2839 38.822 62.9145 52.1957 63.0282 57.4901C63.1465 62.9971 65.1646 75.5568 65.1646 75.5568H67.5122C67.5122 75.5568 67.1406 63.3189 67.3482 57.9104C67.5744 52.0143 69.4473 38.8218 69.4473 38.8218H64.2839V38.822Z" fill="#263238"/>
<path d="M67.7154 75.6409H64.961L64.7588 74.7623L67.8435 74.6548L67.7154 75.6409Z" fill="#407BFF"/>
<path opacity="0.2" d="M67.3252 42.1496C65.5933 45.6334 66.9775 51.989 67.5899 54.3535C67.904 50.8022 68.4334 46.4613 68.8462 43.2735C68.5837 41.4697 68.1239 40.5433 67.3252 42.1496Z" fill="black"/>
<path d="M66.146 38.822C66.146 38.822 67.7432 52.7257 68.9494 57.1895C70.3815 62.4891 79.2769 69.6211 79.2769 69.6211L81.0813 68.0884C81.0813 68.0884 74.6339 60.341 73.539 57.5489C71.2021 51.5902 73.2024 42.7102 71.3348 38.822H66.146Z" fill="#263238"/>
<path d="M81.3696 68.006L79.1311 69.9074L78.2949 69.4062L80.8272 67.0508L81.3696 68.006Z" fill="#407BFF"/>
<path d="M66.9205 22.6103C66.934 22.7497 66.8708 22.8699 66.7798 22.8786C66.6888 22.8872 66.6039 22.7814 66.5907 22.642C66.5772 22.5026 66.6404 22.3824 66.7314 22.3738C66.8224 22.3651 66.9071 22.4709 66.9205 22.6103Z" fill="#263238"/>
<path d="M65.3448 22.7612C65.3583 22.9006 65.2951 23.0206 65.2041 23.0294C65.1129 23.0383 65.0282 22.9323 65.015 22.7929C65.0015 22.6535 65.0647 22.5333 65.1557 22.5247C65.2467 22.516 65.3316 22.6218 65.3448 22.7612Z" fill="#263238"/>
<path d="M65.1966 22.5287L64.8525 22.4644C64.8525 22.4644 65.0495 22.7093 65.1966 22.5287Z" fill="#263238"/>
<path d="M65.7842 22.9609C65.7842 22.9609 65.6053 23.5838 65.3726 23.8983C65.573 24.0525 65.8785 23.944 65.8785 23.944L65.7842 22.9609Z" fill="#ED847E"/>
<path d="M66.6535 24.4033C66.5825 24.4231 66.5053 24.4379 66.4216 24.4459C66.3989 24.4481 66.379 24.4315 66.3767 24.4089C66.3745 24.3864 66.3905 24.3665 66.4137 24.364C67.025 24.3058 67.2702 23.8507 67.2727 23.8461C67.2833 23.826 67.308 23.8181 67.3282 23.8287C67.3484 23.8392 67.3562 23.864 67.3457 23.8842C67.3365 23.9018 67.1393 24.2683 66.6535 24.4033Z" fill="#263238"/>
<path d="M69.8779 23.0806C69.8366 23.4354 69.6352 23.738 69.4021 23.9166C69.0515 24.185 68.7126 23.911 68.6733 23.4943C68.6377 23.1194 68.7773 22.528 69.1951 22.4232C69.6068 22.3197 69.9251 22.6749 69.8779 23.0806Z" fill="#FFC3BD"/>
<path d="M67.0892 21.6224C67.0683 21.6282 67.045 21.6257 67.0249 21.6138C66.7104 21.425 66.4368 21.5541 66.4337 21.5556C66.3932 21.5748 66.3437 21.5585 66.3237 21.5176C66.3039 21.4767 66.3208 21.4275 66.3617 21.4076C66.3759 21.4007 66.7192 21.2384 67.1095 21.4727C67.1485 21.4961 67.161 21.5466 67.1378 21.5855C67.1263 21.6044 67.1088 21.617 67.0892 21.6224Z" fill="#263238"/>
<path d="M64.574 22.1011C64.5543 22.1067 64.5326 22.1048 64.5132 22.0944C64.4732 22.0729 64.4581 22.023 64.4794 21.9831C64.6942 21.5822 65.0721 21.5451 65.0882 21.5438C65.1335 21.5399 65.1733 21.5733 65.1771 21.6186C65.1809 21.6638 65.1475 21.7035 65.1024 21.7077C65.0876 21.7089 64.795 21.7419 64.6243 22.0608C64.6136 22.0814 64.595 22.0954 64.574 22.1011Z" fill="#263238"/>
<path d="M73.3047 30.166C73.7037 31.1377 74.0309 32.0981 74.3158 33.0961C74.5965 34.0924 74.8409 35.1037 74.9529 36.1756C74.9859 36.4406 74.9949 36.718 75.008 36.9918L75.0091 37.0175V37.0604L75.0068 37.1489C75.0028 37.2045 74.9978 37.2612 74.9892 37.3117C74.9736 37.4163 74.9502 37.5087 74.9243 37.5962C74.8716 37.77 74.8054 37.9197 74.7353 38.0584C74.4516 38.6042 74.1132 39.0186 73.7623 39.4198C73.0505 40.2068 72.2927 40.8888 71.4644 41.5172L70.9019 40.9011C71.5418 40.1552 72.1877 39.3882 72.7335 38.6044C73.0021 38.2158 73.2606 37.8103 73.4063 37.4445C73.4412 37.3549 73.4672 37.2696 73.4819 37.2011C73.4887 37.1675 73.4931 37.137 73.4927 37.1166C73.4939 37.1049 73.4919 37.0986 73.4919 37.0916C73.4917 37.0886 73.4902 37.0878 73.49 37.0859L73.4871 37.0604C73.4622 36.8326 73.4439 36.6076 73.4011 36.3749C73.2571 35.4499 72.9943 34.5066 72.7128 33.5729C72.4188 32.6444 72.0909 31.7003 71.7455 30.8031L73.3047 30.166Z" fill="#FFC3BD"/>
<path d="M72.5849 28.293C73.2913 28.5078 74.1397 30.9403 74.1397 30.9403L71.3989 32.8998C71.3989 32.8998 70.3994 30.8692 70.6962 29.9561C71.0055 29.0053 71.7787 28.048 72.5849 28.293Z" fill="#407BFF"/>
<path opacity="0.4" d="M72.5849 28.293C73.2913 28.5078 74.1397 30.9403 74.1397 30.9403L71.3989 32.8998C71.3989 32.8998 70.3994 30.8692 70.6962 29.9561C71.0055 29.0053 71.7787 28.048 72.5849 28.293Z" fill="black"/>
<path d="M80.4856 71.6679C80.4176 71.6679 80.356 71.6365 80.302 71.5741C80.2561 71.5211 80.2586 71.47 80.2688 71.4364C80.3329 71.2242 80.936 71.051 81.0046 71.032C81.0201 71.0276 81.0372 71.033 81.0476 71.0459C81.0577 71.0585 81.0597 71.0764 81.052 71.0908C80.9443 71.2951 80.7306 71.6416 80.5113 71.6666C80.5027 71.6676 80.4942 71.6679 80.4856 71.6679ZM80.9312 71.1398C80.692 71.216 80.3813 71.3485 80.3477 71.4602C80.3435 71.4742 80.3416 71.4938 80.3644 71.5203C80.4069 71.5694 80.4524 71.5904 80.5023 71.5848C80.6204 71.5714 80.7778 71.407 80.9312 71.1398Z" fill="#407BFF"/>
<path d="M80.7402 71.1469C80.5399 71.1469 80.3149 71.1066 80.2379 71.0064C80.2147 70.9761 80.1844 70.9125 80.2425 70.8267C80.2796 70.7722 80.332 70.7403 80.3984 70.7317C80.6475 70.7 81.0265 71.0266 81.0424 71.0406C81.0534 71.0502 81.0585 71.065 81.0557 71.0794C81.053 71.0938 81.0426 71.1055 81.029 71.1105C80.9631 71.1335 80.8558 71.1469 80.7402 71.1469ZM80.4351 70.8117C80.4261 70.8117 80.4173 70.8123 80.4088 70.8134C80.3662 70.819 80.3339 70.8384 80.3105 70.873C80.2807 70.9167 80.2909 70.9405 80.303 70.9563C80.3773 71.0527 80.7187 71.0895 80.9264 71.0521C80.8022 70.9555 80.5847 70.8117 80.4351 70.8117Z" fill="#407BFF"/>
<path d="M64.8779 78.0075C64.7053 78.0075 64.5462 77.9809 64.4569 77.9006C64.4002 77.8497 64.3753 77.7823 64.3826 77.7003C64.387 77.6514 64.411 77.6136 64.4523 77.5909C64.665 77.4742 65.3572 77.8278 65.4353 77.8685C65.4509 77.8766 65.4595 77.8935 65.457 77.9108C65.4545 77.9281 65.4415 77.9419 65.4244 77.9453C65.2769 77.9747 65.0692 78.0075 64.8779 78.0075ZM64.5686 77.6483C64.5368 77.6483 64.5108 77.6529 64.4918 77.6633C64.4749 77.6725 64.4665 77.6863 64.4646 77.7078C64.4596 77.7633 64.4751 77.8065 64.512 77.8395C64.6174 77.9344 64.9031 77.9511 65.2877 77.887C65.0494 77.7725 64.733 77.6483 64.5686 77.6483Z" fill="#407BFF"/>
<path d="M65.4164 77.9463C65.4106 77.9463 65.4049 77.9451 65.3995 77.9426C65.1925 77.8491 64.7832 77.4747 64.8153 77.2781C64.8229 77.2316 64.8558 77.1737 64.9696 77.1621C65.0545 77.1543 65.1305 77.1775 65.1973 77.233C65.4155 77.4148 65.4556 77.8821 65.4573 77.9019C65.4585 77.9165 65.4519 77.9305 65.44 77.9388C65.4331 77.9438 65.4247 77.9463 65.4164 77.9463ZM65.0028 77.2426C64.9946 77.2426 64.9863 77.243 64.9781 77.2439C64.903 77.2516 64.898 77.2816 64.8965 77.2914C64.8773 77.4094 65.1551 77.704 65.3659 77.8318C65.3458 77.6957 65.288 77.4154 65.1447 77.2963C65.1017 77.2602 65.0551 77.2426 65.0028 77.2426Z" fill="#407BFF"/>
<path d="M71.4405 38.4082L71.6208 39.0393C71.6455 39.0883 71.5876 39.1382 71.506 39.1382H64.2489C64.1854 39.1382 64.1328 39.1071 64.1287 39.0672L64.0652 38.4361C64.0608 38.3923 64.1159 38.3552 64.1854 38.3552H71.3257C71.3781 38.3552 71.4245 38.3765 71.4405 38.4082Z" fill="#407BFF"/>
<path opacity="0.3" d="M71.4405 38.4082L71.6208 39.0393C71.6455 39.0883 71.5876 39.1382 71.506 39.1382H64.2489C64.1854 39.1382 64.1328 39.1071 64.1287 39.0672L64.0652 38.4361C64.0608 38.3923 64.1159 38.3552 64.1854 38.3552H71.3257C71.3781 38.3552 71.4245 38.3765 71.4405 38.4082Z" fill="white"/>
<path d="M70.4816 39.2065H70.6728C70.7109 39.2065 70.7398 39.1869 70.7374 39.1629L70.6477 38.3429C70.645 38.3189 70.6118 38.2993 70.5738 38.2993H70.3825C70.3445 38.2993 70.3155 38.3189 70.318 38.3429L70.4077 39.1629C70.4102 39.1869 70.4436 39.2065 70.4816 39.2065Z" fill="#263238"/>
<path d="M64.7863 39.2065H64.9775C65.0155 39.2065 65.0445 39.1869 65.042 39.1629L64.9524 38.3429C64.9497 38.3189 64.9165 38.2993 64.8785 38.2993H64.6872C64.6492 38.2993 64.6202 38.3189 64.6227 38.3429L64.7124 39.1629C64.7149 39.1869 64.7483 39.2065 64.7863 39.2065Z" fill="#263238"/>
<path d="M67.6339 39.2065H67.8252C67.8632 39.2065 67.8924 39.1869 67.8897 39.1629L67.8 38.3429C67.7973 38.3189 67.7641 38.2993 67.7261 38.2993H67.5349C67.4969 38.2993 67.4679 38.3189 67.4704 38.3429L67.56 39.1629C67.5625 39.1869 67.5959 39.2065 67.6339 39.2065Z" fill="#263238"/>
<path d="M66.7723 22.3775L66.4282 22.313C66.4282 22.313 66.625 22.5582 66.7723 22.3775Z" fill="#263238"/>
<path opacity="0.2" d="M60.4165 46.8279C51.3343 50.3574 41.1084 45.8571 37.5781 36.7729C34.0478 27.6886 38.5509 17.464 47.6331 13.9345C56.7174 10.404 66.9431 14.9044 70.4736 23.9887C74.0039 33.073 69.5007 43.2974 60.4165 46.8279Z" fill="#407BFF"/>
<path opacity="0.1" d="M57.2234 13.0265L43.3848 44.4584C43.1707 44.2969 42.9606 44.1299 42.7537 43.9596C41.434 42.8681 40.2669 41.5765 39.2986 40.104L39.2979 40.1023L51.2506 12.9539C53.2618 12.6302 55.2803 12.6665 57.2234 13.0265Z" fill="white"/>
<path opacity="0.1" d="M67.0615 18.4804L54.0503 48.0301C51.3243 48.0346 48.6578 47.4023 46.2549 46.2221L60.4623 13.9526C62.9552 14.9276 65.2224 16.4676 67.0615 18.4804Z" fill="white"/>
<path d="M39.5011 18.4932C46.066 10.4714 57.8916 9.29021 65.9134 15.8549C73.9351 22.4196 75.1163 34.2454 68.5516 42.2672C61.9858 50.2903 50.16 51.4715 42.1382 44.9068C34.1164 38.3419 32.9353 26.5163 39.5011 18.4932ZM67.3643 41.2953C73.392 33.93 72.3089 23.0712 64.9419 17.0422C57.5748 11.0132 46.7164 12.0994 40.6888 19.4647C34.6598 26.8317 35.7429 37.6905 43.1099 43.7195C50.477 49.7486 61.3353 48.6623 67.3643 41.2953Z" fill="#407BFF"/>
<path d="M69.0201 41.2299C70.8689 42.3339 72.6276 43.5479 74.3558 44.7991C76.0836 46.051 77.7678 47.356 79.4257 48.6931C81.084 50.0298 82.7082 51.4084 84.2768 52.8543C85.0628 53.5755 85.8314 54.3177 86.586 55.0773C87.3382 55.8397 88.0792 56.6158 88.7754 57.4466C89.159 57.9043 89.0989 58.5861 88.6412 58.9697C88.2913 59.2629 87.8083 59.2953 87.4298 59.0907C86.4777 58.5725 85.5705 57.9997 84.6742 57.4132C83.7803 56.8239 82.9007 56.2172 82.0385 55.5893C80.3107 54.3375 78.6381 53.0183 76.9998 51.6572C75.3613 50.2963 73.7489 48.9037 72.18 47.4576C70.6118 46.011 69.0739 44.5271 67.626 42.9333C67.2128 42.4784 67.2466 41.7749 67.7014 41.3618C68.0728 41.0246 68.6108 40.986 69.0201 41.2299Z" fill="#407BFF"/>
<path d="M71.0858 40.7073L69.2314 40.9893L70.5593 42.1528C70.5593 42.1528 71.6073 41.7727 71.7105 41.0583L71.0858 40.7073Z" fill="#FFC3BD"/>
<path d="M68.2305 42.0516L69.3949 42.9656L70.8179 42.0369L69.2317 40.9895L68.2305 42.0516Z" fill="#FFC3BD"/>
<path d="M59.4613 44.0734C59.7933 43.1378 60.7257 42.4746 61.7095 42.4746H77.0789C78.2451 42.4746 79.0805 43.3972 78.9449 44.5353L74.9757 77.8569C74.8401 78.9951 73.7849 79.9177 72.6187 79.9177H23.8463C22.6801 79.9177 21.8447 78.9951 21.9802 77.8569L25.3143 49.868C25.4499 48.7298 26.5051 47.8072 27.6713 47.8072H54.2107C56.5084 47.8072 58.686 46.2587 59.4613 44.0734Z" fill="#407BFF"/>
<path d="M22.8643 78.3837H73.8214L76.7251 44.0962H25.7679L22.8643 78.3837Z" fill="#F0F0F0"/>
<path d="M22.8643 78.3837H73.8214L75.9225 44.0962H25.7679L22.8643 78.3837Z" fill="#E0E0E0"/>
<path d="M22.8643 78.3837H73.8214L75.5731 43.0081H24.6159L22.8643 78.3837Z" fill="#F0F0F0"/>
<path d="M22.8643 78.3837H73.8214L74.5146 43.0081H24.6159L22.8643 78.3837Z" fill="#E0E0E0"/>
<path d="M22.8643 78.3837H73.8214L74.125 42.0481H23.1678L22.8643 78.3837Z" fill="#F0F0F0"/>
<path d="M22.8652 78.3838H73.8223L72.7767 42.7361H22.1475L22.8652 78.3838Z" fill="#E0E0E0"/>
<path d="M22.8649 78.3837H73.8221L72.3097 43.0081H21.3525L22.8649 78.3837Z" fill="#F0F0F0"/>
<path d="M22.8645 78.3837H73.8217L71.4132 43.5415H20.4561L22.8645 78.3837Z" fill="#E0E0E0"/>
<path d="M22.8647 78.3838H73.8219L71.0294 43.8401H20.0723L22.8647 78.3838Z" fill="#F0F0F0"/>
<path d="M48.3827 46.2373C48.4161 45.2786 49.1369 44.5991 50.1205 44.5991H65.4899C66.6561 44.5991 67.786 45.5445 68.0137 46.7105L74.0855 77.8063C74.3132 78.9725 73.5525 79.9177 72.3863 79.9177H23.6139C22.4477 79.9177 21.3178 78.9723 21.0901 77.8063L16.0852 52.1745C15.8575 51.0083 16.6182 50.0631 17.7844 50.0631H44.3238C46.6213 50.0631 48.3047 48.4764 48.3827 46.2373Z" fill="#407BFF"/>
<path opacity="0.2" d="M48.3827 46.2373C48.4161 45.2786 49.1369 44.5991 50.1205 44.5991H65.4899C66.6561 44.5991 67.786 45.5445 68.0137 46.7105L74.0855 77.8063C74.3132 78.9725 73.5525 79.9177 72.3863 79.9177H23.6139C22.4477 79.9177 21.3178 78.9723 21.0901 77.8063L16.0852 52.1745C15.8575 51.0083 16.6182 50.0631 17.7844 50.0631H44.3238C46.6213 50.0631 48.3047 48.4764 48.3827 46.2373Z" fill="black"/>
</g>
<defs>
<clipPath id="clip0_1456_17142">
<rect width="96" height="96" fill="white" transform="translate(0.355469)"/>
</clipPath>
</defs>
</svg>
