<svg width="25" height="25" viewBox="0 0 25 25" fill="none" xmlns="http://www.w3.org/2000/svg">
<g clipPath="url(#clip0_1692_4176)">
<path d="M9.5 10.25V18.25L16.5 14.25L9.5 10.25ZM21.5 6.25H13.92L17.21 2.96L16.5 2.25L12.5 6.25H12.47L8.47 2.25L7.78 2.96L11.06 6.25H3.5C2.4 6.25 1.5 7.15 1.5 8.25V20.25C1.5 21.35 2.4 22.25 3.5 22.25H21.5C22.6 22.25 23.5 21.35 23.5 20.25V8.25C23.5 7.15 22.6 6.25 21.5 6.25ZM21.5 20.25H3.5V8.25H21.5V20.25Z" fill="#F7FFFB"/>
</g>
<defs>
<clipPath id="clip0_1692_4176">
<rect width="24" height="24" fill="white" transform="translate(0.5 0.25)"/>
</clipPath>
</defs>
</svg>
