<svg width="25" height="24" viewBox="0 0 25 24" fill="none" xmlns="http://www.w3.org/2000/svg">
<rect width="25" height="24" fill="#1E1E1E"/>
<path d="M-1681 -302C-1681 -303.104 -1680.1 -304 -1679 -304H2109C2110.1 -304 2111 -303.105 2111 -302V2358C2111 2359.1 2110.1 2360 2109 2360H-1679C-1680.1 2360 -1681 2359.1 -1681 2358V-302Z" fill="#404040"/>
<path d="M-1679 -303H2109V-305H-1679V-303ZM2110 -302V2358H2112V-302H2110ZM2109 2359H-1679V2361H2109V2359ZM-1680 2358V-302H-1682V2358H-1680ZM-1679 2359C-1679.55 2359 -1680 2358.55 -1680 2358H-1682C-1682 2359.66 -1680.66 2361 -1679 2361V2359ZM2110 2358C2110 2358.55 2109.55 2359 2109 2359V2361C2110.66 2361 2112 2359.66 2112 2358H2110ZM2109 -303C2109.55 -303 2110 -302.552 2110 -302H2112C2112 -303.657 2110.66 -305 2109 -305V-303ZM-1679 -305C-1680.66 -305 -1682 -303.657 -1682 -302H-1680C-1680 -302.552 -1679.55 -303 -1679 -303V-305Z" fill="white" fillOpacity="0.1"/>
<g clipPath="url(#clip0_494_7652)">
<rect width="1440" height="1024" transform="translate(-1072 -24)" fill="white"/>
<g clipPath="url(#clip1_494_7652)">
<path d="M22.223 18.5534C21.5801 17.9802 21.0173 17.3232 20.5497 16.6C20.0392 15.6017 19.7332 14.5115 19.6497 13.3934V10.1C19.6541 8.34376 19.017 6.64633 17.8582 5.32666C16.6993 4.007 15.0984 3.15592 13.3563 2.93335V2.07335C13.3563 1.83731 13.2626 1.61093 13.0957 1.44402C12.9288 1.27712 12.7024 1.18335 12.4663 1.18335C12.2303 1.18335 12.0039 1.27712 11.837 1.44402C11.6701 1.61093 11.5763 1.83731 11.5763 2.07335V2.94668C9.84985 3.1853 8.26832 4.04152 7.12469 5.35675C5.98107 6.67199 5.35283 8.35711 5.35634 10.1V13.3934C5.27284 14.5115 4.96686 15.6017 4.45634 16.6C3.99693 17.3216 3.44314 17.9785 2.80967 18.5534C2.73856 18.6158 2.68157 18.6927 2.64249 18.7789C2.6034 18.8651 2.58313 18.9587 2.58301 19.0534V19.96C2.58301 20.1368 2.65325 20.3064 2.77827 20.4314C2.90329 20.5564 3.07286 20.6267 3.24967 20.6267H21.783C21.9598 20.6267 22.1294 20.5564 22.2544 20.4314C22.3794 20.3064 22.4497 20.1368 22.4497 19.96V19.0534C22.4496 18.9587 22.4293 18.8651 22.3902 18.7789C22.3511 18.6927 22.2941 18.6158 22.223 18.5534ZM3.96967 19.2934C4.58995 18.6942 5.13607 18.0227 5.59634 17.2934C6.23942 16.0877 6.61463 14.7574 6.69634 13.3934V10.1C6.6699 9.31871 6.80096 8.54007 7.0817 7.81046C7.36245 7.08086 7.78715 6.41521 8.33051 5.85315C8.87386 5.2911 9.52477 4.84413 10.2445 4.53887C10.9642 4.2336 11.7379 4.07629 12.5197 4.07629C13.3014 4.07629 14.0752 4.2336 14.7949 4.53887C15.5146 4.84413 16.1655 5.2911 16.7088 5.85315C17.2522 6.41521 17.6769 7.08086 17.9576 7.81046C18.2384 8.54007 18.3694 9.31871 18.343 10.1V13.3934C18.4247 14.7574 18.7999 16.0877 19.443 17.2934C19.9033 18.0227 20.4494 18.6942 21.0697 19.2934H3.96967Z" fill="#17181A"/>
<path d="M12.5494 22.8533C12.9693 22.8436 13.3723 22.6858 13.6871 22.4076C14.0019 22.1294 14.2081 21.7489 14.2694 21.3333H10.7627C10.8257 21.7602 11.0416 22.1497 11.3702 22.4293C11.6989 22.7089 12.1179 22.8595 12.5494 22.8533Z" fill="#17181A"/>
</g>
</g>
<defs>
<clipPath id="clip0_494_7652">
<rect width="1440" height="1024" fill="white" transform="translate(-1072 -24)"/>
</clipPath>
<clipPath id="clip1_494_7652">
<rect width="24" height="24" fill="white" transform="translate(0.549805)"/>
</clipPath>
</defs>
</svg>
