<svg width="30" height="30" viewBox="0 0 30 30" fill="none" xmlns="http://www.w3.org/2000/svg">
<g clip-path="url(#clip0_997_11568)">
<path d="M25.7814 16.4531L29.297 19.9219L13.6876 27.375C13.6876 27.375 11.6251 28.3125 10.6407 26.8125C6.79699 20.8125 25.7814 16.4531 25.7814 16.4531Z" fill="#256382"/>
<path d="M13.3124 23.0156C13.3124 23.0156 10.3124 24.0469 10.8749 26.0625C11.4374 28.125 13.8281 26.8594 13.8281 26.8594L28.6406 19.9687C28.6406 19.9687 27.7968 17.7656 29.2968 16.3125L13.3124 23.0156Z" fill="#D9E3E8"/>
<path d="M15.7969 2.34375L30 16.1719L13.2188 22.7344L2.4375 5.95312L15.7969 2.34375Z" fill="#42ADE2"/>
<path d="M16.2188 5.48438L18.9375 8.39062L8.76563 12.0469L6.375 8.34375L16.2188 5.48438Z" fill="white"/>
<path d="M28.5938 17.8125L18.7031 21.8438L28.4531 17.3906L28.5938 17.8125ZM28.4531 19.0312L17.9062 23.3906L28.2656 18.5625L28.4531 19.0312ZM28.5469 19.6875L15.0938 25.5469L28.3594 19.2656L28.5469 19.6875Z" fill="#94989B"/>
<path d="M10.6406 26.8126C9 23.3907 13.2188 22.7813 13.2188 22.7813L2.4375 5.95318C2.4375 5.95318 0 5.90631 0 8.43756C0 9.46881 0.46875 10.2657 0.46875 10.2657L10.6406 26.8126Z" fill="#428BC1"/>
</g>
<defs>
<clipPath id="clip0_997_11568">
<rect width="30" height="30" fill="white"/>
</clipPath>
</defs>
</svg>
