<svg width="30" height="30" viewBox="0 0 30 30" fill="none" xmlns="http://www.w3.org/2000/svg">
<path d="M7.5 1.875H23.4375C23.9348 1.875 24.4117 2.07254 24.7633 2.42417C25.115 2.77581 25.3125 3.25272 25.3125 3.75V24.375H7.5V1.875Z" fill="#676767"/>
<path d="M7.5 1.875H23.4375C23.9348 1.875 24.4117 2.07254 24.7633 2.42417C25.115 2.77581 25.3125 3.25272 25.3125 3.75V24.375H7.5V1.875Z" fill="url(#paint0_linear_997_11545)"/>
<path d="M6.09375 1.875C5.72079 1.875 5.3631 2.02316 5.09938 2.28688C4.83566 2.5506 4.6875 2.90829 4.6875 3.28125V26.25H5.625C5.625 26.0014 5.72377 25.7629 5.89959 25.5871C6.0754 25.4113 6.31386 25.3125 6.5625 25.3125H7.5V1.875H6.09375Z" fill="#676767"/>
<path d="M6.09375 1.875C5.72079 1.875 5.3631 2.02316 5.09938 2.28688C4.83566 2.5506 4.6875 2.90829 4.6875 3.28125V26.25H5.625C5.625 26.0014 5.72377 25.7629 5.89959 25.5871C6.0754 25.4113 6.31386 25.3125 6.5625 25.3125H7.5V1.875H6.09375Z" fill="url(#paint1_radial_997_11545)"/>
<g filter="url(#filter0_i_997_11545)">
<path d="M6.09375 24.375C5.72079 24.375 5.3631 24.5232 5.09938 24.7869C4.83566 25.0506 4.6875 25.4083 4.6875 25.7812V26.7188C4.6875 27.0917 4.83566 27.4494 5.09938 27.7131C5.3631 27.9768 5.72079 28.125 6.09375 28.125H24.2888C24.9 28.125 25.3125 27.8119 25.3125 27.1875H6.5625C6.31386 27.1875 6.0754 27.0887 5.89959 26.9129C5.72377 26.7371 5.625 26.4986 5.625 26.25C5.625 26.0014 5.72377 25.7629 5.89959 25.5871C6.0754 25.4113 6.31386 25.3125 6.5625 25.3125H25.3125V24.375H6.09375Z" fill="#676767"/>
</g>
<g filter="url(#filter1_f_997_11545)">
<path d="M21.3887 2.18262H22.0749V24.302H21.3887V2.18262Z" fill="#676767"/>
</g>
<g filter="url(#filter2_f_997_11545)">
<path d="M21.3887 27.9936H22.3262V24.3018H21.3887V27.9936Z" fill="#676767"/>
</g>
<path d="M11.6602 6.5332C11.6602 6.28456 11.7589 6.04611 11.9347 5.87029C12.1106 5.69448 12.349 5.5957 12.5977 5.5957H17.5195C17.7682 5.5957 18.0066 5.69448 18.1824 5.87029C18.3583 6.04611 18.457 6.28456 18.457 6.5332V8.46539C18.457 8.71403 18.3583 8.95249 18.1824 9.1283C18.0066 9.30412 17.7682 9.40289 17.5195 9.40289H12.5977C12.349 9.40289 12.1106 9.30412 11.9347 9.1283C11.7589 8.95249 11.6602 8.71403 11.6602 8.46539V6.5332Z" fill="#DED7E6"/>
<path d="M25.3125 27.1875V25.3125H6.5625C6.31386 25.3125 6.0754 25.4113 5.89959 25.5871C5.72377 25.7629 5.625 26.0014 5.625 26.25C5.625 26.4986 5.72377 26.7371 5.89959 26.9129C6.0754 27.0887 6.31386 27.1875 6.5625 27.1875H25.3125Z" fill="url(#paint2_linear_997_11545)"/>
<path d="M25.3125 27.1875V25.3125H6.5625C6.31386 25.3125 6.0754 25.4113 5.89959 25.5871C5.72377 25.7629 5.625 26.0014 5.625 26.25C5.625 26.4986 5.72377 26.7371 5.89959 26.9129C6.0754 27.0887 6.31386 27.1875 6.5625 27.1875H25.3125Z" fill="url(#paint3_linear_997_11545)"/>
<path d="M25.3125 27.1875V25.3125H6.5625C6.31386 25.3125 6.0754 25.4113 5.89959 25.5871C5.72377 25.7629 5.625 26.0014 5.625 26.25C5.625 26.4986 5.72377 26.7371 5.89959 26.9129C6.0754 27.0887 6.31386 27.1875 6.5625 27.1875H25.3125Z" fill="url(#paint4_radial_997_11545)"/>
<path d="M21.6064 28.125H22.5439V24.3019H21.6064V28.125Z" fill="url(#paint5_linear_997_11545)"/>
<path d="M21.6064 1.875H22.5439V24.3019H21.6064V1.875Z" fill="url(#paint6_linear_997_11545)"/>
<defs>
<filter id="filter0_i_997_11545" x="4.6875" y="24.375" width="20.625" height="3.85" filterUnits="userSpaceOnUse" color-interpolation-filters="sRGB">
<feFlood flood-opacity="0" result="BackgroundImageFix"/>
<feBlend mode="normal" in="SourceGraphic" in2="BackgroundImageFix" result="shape"/>
<feColorMatrix in="SourceAlpha" type="matrix" values="0 0 0 0 0 0 0 0 0 0 0 0 0 0 0 0 0 0 127 0" result="hardAlpha"/>
<feOffset dy="0.1"/>
<feGaussianBlur stdDeviation="0.15"/>
<feComposite in2="hardAlpha" operator="arithmetic" k2="-1" k3="1"/>
<feColorMatrix type="matrix" values="0 0 0 0 0.294118 0 0 0 0 0.133333 0 0 0 0 0.419608 0 0 0 1 0"/>
<feBlend mode="normal" in2="shape" result="effect1_innerShadow_997_11545"/>
</filter>
<filter id="filter1_f_997_11545" x="20.8887" y="1.68262" width="1.68652" height="23.1191" filterUnits="userSpaceOnUse" color-interpolation-filters="sRGB">
<feFlood flood-opacity="0" result="BackgroundImageFix"/>
<feBlend mode="normal" in="SourceGraphic" in2="BackgroundImageFix" result="shape"/>
<feGaussianBlur stdDeviation="0.25" result="effect1_foregroundBlur_997_11545"/>
</filter>
<filter id="filter2_f_997_11545" x="20.8887" y="23.8018" width="1.9375" height="4.69141" filterUnits="userSpaceOnUse" color-interpolation-filters="sRGB">
<feFlood flood-opacity="0" result="BackgroundImageFix"/>
<feBlend mode="normal" in="SourceGraphic" in2="BackgroundImageFix" result="shape"/>
<feGaussianBlur stdDeviation="0.25" result="effect1_foregroundBlur_997_11545"/>
</filter>
<linearGradient id="paint0_linear_997_11545" x1="26.8969" y1="5.04562" x2="24.3563" y2="5.13656" gradientUnits="userSpaceOnUse">
<stop offset="0.409" stop-color="#7B698D"/>
<stop offset="1" stop-color="#7B698D" stop-opacity="0"/>
</linearGradient>
<radialGradient id="paint1_radial_997_11545" cx="0" cy="0" r="1" gradientUnits="userSpaceOnUse" gradientTransform="translate(5.06156 25.0069) rotate(-90) scale(6.23006 1.09777)">
<stop stop-color="#51475C"/>
<stop offset="1" stop-color="#51475C" stop-opacity="0"/>
</radialGradient>
<linearGradient id="paint2_linear_997_11545" x1="6.30094" y1="26.64" x2="25.1428" y2="26.64" gradientUnits="userSpaceOnUse">
<stop stop-color="#D5BCEB"/>
<stop offset="1" stop-color="#E3D3F2"/>
</linearGradient>
<linearGradient id="paint3_linear_997_11545" x1="15.2344" y1="25.0669" x2="15.2344" y2="26.3972" gradientUnits="userSpaceOnUse">
<stop stop-color="#9F84AE"/>
<stop offset="1" stop-color="#C5B1D6" stop-opacity="0"/>
</linearGradient>
<radialGradient id="paint4_radial_997_11545" cx="0" cy="0" r="1" gradientUnits="userSpaceOnUse" gradientTransform="translate(21.7087 25.5178) rotate(90) scale(2.8418 0.703125)">
<stop stop-color="#937BAD"/>
<stop offset="1" stop-color="#B9A2C9" stop-opacity="0"/>
</radialGradient>
<linearGradient id="paint5_linear_997_11545" x1="21.6064" y1="26.4281" x2="22.5439" y2="26.4281" gradientUnits="userSpaceOnUse">
<stop offset="0.339" stop-color="#7D56C2"/>
<stop offset="0.788" stop-color="#8C6CCC"/>
</linearGradient>
<linearGradient id="paint6_linear_997_11545" x1="21.6064" y1="12.3731" x2="22.7661" y2="12.3731" gradientUnits="userSpaceOnUse">
<stop offset="0.373" stop-color="#8168B6"/>
<stop offset="0.868" stop-color="#A38AD4"/>
</linearGradient>
</defs>
</svg>
