<svg width="30" height="30" viewBox="0 0 30 30" fill="none" xmlns="http://www.w3.org/2000/svg">
<path fill-rule="evenodd" clip-rule="evenodd" d="M15 26.25C16.4774 26.25 17.9403 25.959 19.3052 25.3936C20.6701 24.8283 21.9103 23.9996 22.955 22.955C23.9996 21.9103 24.8283 20.6701 25.3936 19.3052C25.959 17.9403 26.25 16.4774 26.25 15C26.25 13.5226 25.959 12.0597 25.3936 10.6948C24.8283 9.3299 23.9996 8.08971 22.955 7.04505C21.9103 6.00039 20.6701 5.17172 19.3052 4.60636C17.9403 4.04099 16.4774 3.75 15 3.75C12.0163 3.75 9.15483 4.93526 7.04505 7.04505C4.93526 9.15483 3.75 12.0163 3.75 15C3.75 17.9837 4.93526 20.8452 7.04505 22.955C9.15483 25.0647 12.0163 26.25 15 26.25ZM13.4788 9.9875L20.5338 13.9075C20.7285 14.0158 20.8908 14.1742 21.0038 14.3663C21.1168 14.5584 21.1763 14.7772 21.1763 15C21.1763 15.2228 21.1168 15.4416 21.0038 15.6337C20.8908 15.8258 20.7285 15.9842 20.5338 16.0925L13.4788 20.0125C13.2503 20.1395 12.9927 20.2046 12.7313 20.2013C12.47 20.1981 12.214 20.1266 11.9888 19.994C11.7636 19.8613 11.577 19.6722 11.4474 19.4452C11.3178 19.2182 11.2498 18.9614 11.25 18.7V11.3C11.2498 11.0386 11.3178 10.7818 11.4474 10.5548C11.577 10.3278 11.7636 10.1387 11.9888 10.006C12.214 9.87343 12.47 9.80195 12.7313 9.79869C12.9927 9.79544 13.2503 9.86052 13.4788 9.9875Z" fill="#676767"/>
</svg>
