<svg width="30" height="30" viewBox="0 0 30 30" fill="none" xmlns="http://www.w3.org/2000/svg">
<g clip-path="url(#clip0_997_11581)">
<path d="M19.5 0C20.2956 0 21.0587 0.316071 21.6213 0.87868C22.1839 1.44129 22.5 2.20435 22.5 3H9C8.20435 3 7.44129 3.31607 6.87868 3.87868C6.31607 4.44129 6 5.20435 6 6V24C5.20435 24 4.44129 23.6839 3.87868 23.1213C3.31607 22.5587 3 21.7956 3 21V3C3 2.20435 3.31607 1.44129 3.87868 0.87868C4.44129 0.316071 5.20435 0 6 0L19.5 0Z" fill="#676767"/>
<path d="M27 7.5C27 6.70435 26.6839 5.94129 26.1213 5.37868C25.5587 4.81607 24.7956 4.5 24 4.5H10.5C9.70435 4.5 8.94129 4.81607 8.37868 5.37868C7.81607 5.94129 7.5 6.70435 7.5 7.5V27C7.5 27.7956 7.81607 28.5587 8.37868 29.1213C8.94129 29.6839 9.70435 30 10.5 30H24C24.7956 30 25.5587 29.6839 26.1213 29.1213C26.6839 28.5587 27 27.7956 27 27V7.5ZM16.5 15H10.5V7.5H16.5V15ZM24 9H18V7.5H24V9ZM24 12H18V10.5H24V12ZM24 15H18V13.5H24V15ZM24 18H10.5V16.5H24V18ZM24 21H10.5V19.5H24V21ZM24 24H10.5V22.5H24V24Z" fill="#676767"/>
</g>
<defs>
<clipPath id="clip0_997_11581">
<rect width="30" height="30" fill="white"/>
</clipPath>
</defs>
</svg>
